<svg width="50" height="50" viewBox="0 0 50 50" fill="none" xmlns="http://www.w3.org/2000/svg">
<path d="M21 2.3094C23.4752 0.880338 26.5248 0.880339 29 2.3094L42.6506 10.1906C45.1258 11.6197 46.6506 14.2607 46.6506 17.1188V32.8812C46.6506 35.7393 45.1258 38.3803 42.6506 39.8094L29 47.6906C26.5248 49.1197 23.4752 49.1197 21 47.6906L7.34936 39.8094C4.87416 38.3803 3.34937 35.7393 3.34937 32.8812V17.1188C3.34937 14.2607 4.87416 11.6197 7.34936 10.1906L21 2.3094Z" fill="#CE9E68"/>
<path d="M21.75 3.60844C23.7611 2.44733 26.2389 2.44733 28.25 3.60844L41.9006 11.4896C43.9117 12.6508 45.1506 14.7966 45.1506 17.1188V32.8812C45.1506 35.2034 43.9117 37.3492 41.9006 38.5104L28.25 46.3916C26.2389 47.5527 23.7611 47.5527 21.75 46.3916L8.09936 38.5104C6.08826 37.3492 4.84937 35.2034 4.84937 32.8812V17.1188C4.84937 14.7966 6.08826 12.6508 8.09936 11.4896L21.75 3.60844Z" stroke="black" stroke-opacity="0.1" stroke-width="3"/>
<g clip-path="url(#clip0_296_9480)">
<path d="M37.5604 20.6562L37.6202 19.7529C37.6733 18.9416 37.5218 18.1211 36.8069 17.6314C36.577 17.4746 36.2998 17.3603 36.1559 17.1243C36.0095 16.8877 36.0298 16.5853 36.0558 16.3079C36.1026 15.7987 36.1557 15.2911 36.1995 14.7825C36.2383 14.3443 36.3063 13.8586 36.2182 13.4251C36.1051 12.8426 35.6681 12.4025 35.2074 12.0665C34.97 11.8972 34.7232 11.7416 34.4681 11.6006C33.2709 10.9168 31.9521 10.4295 30.6488 10.003C29.0839 9.49008 27.4842 9.09006 25.8621 8.80599C24.6551 8.59713 23.3774 8.39419 22.1479 8.50094C21.6983 8.5406 21.2275 8.60771 20.8313 8.83974C20.3446 9.12619 20.0595 9.6958 20.2079 10.2546C20.3141 10.6516 20.585 10.9851 20.899 11.2404C21.3067 11.5733 21.7501 11.8605 22.219 12.0993C23.5213 12.7768 24.924 13.281 26.3246 13.7101C27.876 14.1948 29.4598 14.564 31.0662 14.8177C31.4626 14.8784 31.8615 14.9301 32.2612 14.9737C32.7332 15.0256 33.1826 14.5125 33.1595 14.0631C33.1319 13.5271 32.7541 13.2216 32.2486 13.1662C31.6229 13.1007 30.9749 12.974 30.4183 12.8773C28.8749 12.5741 27.3532 12.1692 25.8622 11.6648C25.3732 11.4984 24.8887 11.3193 24.4091 11.1277C24.3018 11.0851 24.1859 11.0334 24.0892 10.9923C23.7887 10.8621 23.4935 10.7222 23.2016 10.575C23.068 10.5019 23.1225 10.2984 23.2748 10.302L23.2812 10.3037C23.6587 10.322 24.0359 10.3568 24.4112 10.4036L24.4138 10.4043C24.5856 10.4379 24.7636 10.4538 24.9378 10.4784C26.4441 10.719 27.9321 11.0624 29.3915 11.5061C30.253 11.7632 31.1032 12.0573 31.9396 12.3877L32.2225 12.5063C32.5526 12.6499 32.8786 12.8035 33.2002 12.9684C33.6757 13.2131 34.3139 13.4228 34.3912 14.0357C34.4148 14.2311 34.3949 14.4342 34.3854 14.6291L34.2842 16.6504C34.2819 16.6937 34.2707 16.7361 34.2514 16.7749C34.232 16.8137 34.2049 16.8481 34.1716 16.876C34.1384 16.9039 34.0998 16.9246 34.0582 16.9369C34.0166 16.9492 33.9729 16.9528 33.9299 16.9475L33.926 16.9465C33.8763 16.9414 33.826 16.9335 33.7766 16.9271C31.6815 16.6428 29.607 16.2229 27.5663 15.6703C25.5433 15.126 23.557 14.4536 21.6193 13.6572C21.4449 13.587 21.2565 13.502 21.103 13.436C20.6997 13.2617 20.3044 13.0729 19.9054 12.8929C19.4217 12.6735 18.9273 12.5866 18.4035 12.7127C17.9748 12.8187 17.5854 13.0511 17.2923 13.3826C16.9849 13.7364 16.8082 14.1639 16.6033 14.5783C16.3971 14.9924 16.1327 15.4281 16.065 15.8918C15.9172 16.8916 16.3835 17.8613 17.3111 18.299C21.9018 20.4512 26.778 21.9326 31.79 22.6976C31.8853 22.7119 31.9762 22.7473 32.056 22.8014C32.1358 22.8554 32.2024 22.9267 32.251 23.0099C32.2995 23.0931 32.3288 23.1862 32.3366 23.2822C32.3445 23.3783 32.3306 23.4748 32.2962 23.5648L31.9642 24.438L27.2343 36.8459C27.04 37.3598 26.8866 37.9012 26.6464 38.3959C26.2695 39.1742 25.5795 39.529 24.72 39.4961C23.9317 39.4657 23.1506 39.3517 22.3877 39.1542C21.5415 38.9329 20.7092 38.6699 19.8633 38.4474C18.9617 38.2113 17.88 37.8332 17.3653 36.9774C16.9116 36.2237 17.075 35.2791 17.2049 34.4595L18.6836 25.1751L19.3366 21.0793C19.41 20.6144 19.2081 20.0855 18.6973 19.9721C18.2594 19.8755 17.6691 20.1107 17.5898 20.6126L17.1294 23.5053L15.2072 35.5682C14.9327 37.3499 16.0055 38.6367 17.5733 39.3384C18.4875 39.749 19.4594 40.0425 20.4263 40.3182C21.6649 40.6721 22.9091 41.0566 24.193 41.1591C26.0954 41.3127 27.7811 40.4668 28.4791 38.6399C30.0668 34.4659 31.658 30.2943 33.2471 26.1207L34.2442 23.507C34.2935 23.3774 34.3833 23.2671 34.5003 23.1925C34.6172 23.1179 34.7551 23.083 34.8935 23.093C35.4381 23.1312 35.9802 23.0915 36.4554 22.7965C37.2098 22.325 37.5465 21.5373 37.5607 20.6549L37.5604 20.6562ZM35.3904 21.1404C35.1564 21.2668 34.8536 21.274 34.5656 21.241C31.3302 20.8696 28.1123 20.2572 24.9949 19.3115C22.7643 18.631 20.6045 17.7845 18.4606 16.8732C18.25 16.7837 18.025 16.6806 17.9175 16.4792C17.7156 16.0994 18.0195 15.5265 18.1913 15.1791C18.348 14.8622 18.5972 14.4472 19.0105 14.5069C19.6535 14.6005 20.3066 15.0585 20.8999 15.3169C21.6127 15.6293 22.3339 15.9206 23.0638 16.1893C26.1798 17.3362 29.4404 18.1602 32.7354 18.5875C33.3356 18.6656 33.938 18.7304 34.54 18.7812C35.0788 18.8262 35.693 18.8058 35.8599 19.4192C35.9767 19.8384 35.8753 20.3303 35.7324 20.7296C35.6745 20.9051 35.5517 21.052 35.3891 21.14L35.3904 21.1404ZM26.1124 24.0378C24.8745 24.2168 23.4707 24.4177 21.8364 23.9798C21.1537 23.7951 20.4992 23.5189 19.8905 23.1588L17.9128 35.0577C17.7274 36.0847 18.36 37.0825 19.3684 37.3527C19.3684 37.3527 20.9469 37.8653 21.4814 38.0086C22.057 38.1628 23.804 38.5412 23.804 38.5412C24.8124 38.8114 25.8579 38.2633 26.2108 37.2812L30.8551 24.7909C30.3618 24.4471 29.8139 24.1892 29.2346 24.0282C28.1708 23.7432 27.2163 23.8794 26.1124 24.0378Z" fill="black" fill-opacity="0.3"/>
</g>
<defs>
<clipPath id="clip0_296_9480">
<rect width="32" height="32" fill="white" transform="translate(13.6863 5.40405) rotate(15)"/>
</clipPath>
</defs>
</svg>
