<svg width="24" height="24" viewBox="0 0 24 24" fill="none" xmlns="http://www.w3.org/2000/svg">
<path d="M19.5156 11.7284L19.0178 11.7753L19.5156 11.7284ZM19.987 16.7284L19.4892 16.7753L19.987 16.7284ZM4.01303 16.7284L4.51082 16.7753L4.01303 16.7284ZM4.48436 11.7284L4.98215 11.7753V11.7753L4.48436 11.7284ZM15.1108 8.5C14.8346 8.5 14.6108 8.72386 14.6108 9C14.6108 9.27614 14.8346 9.5 15.1108 9.5V8.5ZM6.93425 9.57773C7.20247 9.51206 7.36666 9.24138 7.30099 8.97317C7.23531 8.70495 6.96464 8.54075 6.69642 8.60643L6.93425 9.57773ZM9 8.5C8.72386 8.5 8.5 8.72386 8.5 9C8.5 9.27614 8.72386 9.5 9 9.5V8.5ZM12.5 9.5C12.7761 9.5 13 9.27614 13 9C13 8.72386 12.7761 8.5 12.5 8.5V9.5ZM17.1847 9.09208L17.0658 9.57773L17.1847 9.09208ZM14.5 11C14.5 11.2761 14.7239 11.5 15 11.5C15.2761 11.5 15.5 11.2761 15.5 11H14.5ZM8.5 11C8.5 11.2761 8.72386 11.5 9 11.5C9.27614 11.5 9.5 11.2761 9.5 11H8.5ZM10.8561 15.4492C10.6624 15.2524 10.3458 15.25 10.149 15.4438C9.9523 15.6375 9.94988 15.9541 10.1436 16.1508L10.8561 15.4492ZM11.6817 17L11.3255 17.3508C11.4337 17.4607 11.5866 17.5145 11.7398 17.4966C11.893 17.4787 12.0294 17.3911 12.1093 17.2591L11.6817 17ZM13.9275 14.2591C14.0706 14.023 13.9952 13.7155 13.759 13.5724C13.5229 13.4293 13.2154 13.5047 13.0723 13.7408L13.9275 14.2591ZM19.0178 11.7753L19.4892 16.7753L20.4848 16.6815L20.0134 11.6815L19.0178 11.7753ZM16.889 19.5H7.11102V20.5H16.889V19.5ZM4.51082 16.7753L4.98215 11.7753L3.98656 11.6815L3.51524 16.6815L4.51082 16.7753ZM15.1108 9.5H16.4177V8.5H15.1108V9.5ZM7.11102 19.5C5.55674 19.5 4.37469 18.2195 4.51082 16.7753L3.51524 16.6815C3.32015 18.751 5.00684 20.5 7.11102 20.5V19.5ZM19.4892 16.7753C19.6253 18.2195 18.4433 19.5 16.889 19.5V20.5C18.9932 20.5 20.6798 18.751 20.4848 16.6815L19.4892 16.7753ZM4.98215 11.7753C5.08256 10.7101 5.87597 9.83686 6.93425 9.57773L6.69642 8.60643C5.25308 8.95984 4.12964 10.1637 3.98656 11.6815L4.98215 11.7753ZM9 9.5H12.5V8.5H9V9.5ZM20.0134 11.6815C19.8704 10.1637 18.7469 8.95984 17.3036 8.60643L17.0658 9.57773C18.124 9.83686 18.9174 10.7101 19.0178 11.7753L20.0134 11.6815ZM17.3036 8.60643C17.0192 8.53679 16.7222 8.5 16.4177 8.5V9.5C16.6415 9.5 16.8586 9.52702 17.0658 9.57773L17.3036 8.60643ZM14.5 7V11H15.5V7H14.5ZM9.5 11V7H8.5V11H9.5ZM12 4.5C13.3807 4.5 14.5 5.61929 14.5 7H15.5C15.5 5.067 13.933 3.5 12 3.5V4.5ZM12 3.5C10.067 3.5 8.5 5.067 8.5 7H9.5C9.5 5.61929 10.6193 4.5 12 4.5V3.5ZM10.1436 16.1508L11.3255 17.3508L12.0379 16.6492L10.8561 15.4492L10.1436 16.1508ZM12.1093 17.2591L13.9275 14.2591L13.0723 13.7408L11.2541 16.7408L12.1093 17.2591Z" fill="#00532D"/>
</svg>
