<svg width="24" height="24" viewBox="0 0 24 24" fill="none" xmlns="http://www.w3.org/2000/svg">
<path d="M15.7053 16.162L15.9317 16.6078L15.7053 16.162ZM19.2949 16.1621L19.5215 15.7163L19.2949 16.1621ZM19.9171 17.8387L19.4427 17.6806L19.9171 17.8387ZM15.0829 17.8387L15.5572 17.6806L15.0829 17.8387ZM17.5 20L17.2571 20.4371C17.4082 20.521 17.5918 20.521 17.7428 20.4371L17.5 20ZM17.5 16.9197L17.0372 17.109C17.114 17.2969 17.2968 17.4196 17.4998 17.4197C17.7028 17.4198 17.8857 17.2971 17.9627 17.1092L17.5 16.9197ZM13 20.5C13.2761 20.5 13.5 20.2761 13.5 20C13.5 19.7239 13.2761 19.5 13 19.5V20.5ZM5.77772 19.3259L6.0555 18.9101H6.0555L5.77772 19.3259ZM4.67412 18.2223L5.08986 17.9445H5.08986L4.67412 18.2223ZM18.2223 6.67412L17.9445 7.08986V7.08986L18.2223 6.67412ZM19.3259 7.77772L18.9101 8.0555V8.0555L19.3259 7.77772ZM5.77772 6.67412L5.49993 6.25839L5.77772 6.67412ZM4.67412 7.77772L5.08986 8.0555L4.67412 7.77772ZM19.5 13.5C19.5 13.7761 19.7239 14 20 14C20.2761 14 20.5 13.7761 20.5 13.5H19.5ZM12.2121 4.60113L12.102 5.08887V5.08887L12.2121 4.60113ZM13.8849 4.97863L13.9949 4.4909L13.9949 4.4909L13.8849 4.97863ZM18.1221 6.51327L17.7623 6.86039V6.86039L18.1221 6.51327ZM7.7134 4.16437L7.88603 4.63362L7.7134 4.16437ZM6.57638 4.85473L6.23901 4.4857V4.48571L6.57638 4.85473ZM5.07745 6.64645C4.99861 6.9111 5.14924 7.18955 5.41389 7.26839C5.67854 7.34723 5.95699 7.1966 6.03583 6.93196L5.07745 6.64645ZM17.9798 7.08999C18.1672 7.29279 18.4836 7.30524 18.6863 7.11781C18.8891 6.93039 18.9016 6.61405 18.7142 6.41126L17.9798 7.08999ZM4 11.5V11C3.72386 11 3.5 11.2239 3.5 11.5H4ZM4 14.5H3.5C3.5 14.7761 3.72386 15 4 15V14.5ZM19.0684 16.6078C19.4251 16.7891 19.6002 17.2077 19.4427 17.6806L20.3914 17.9967C20.6814 17.1263 20.3842 16.1548 19.5215 15.7163L19.0684 16.6078ZM15.5572 17.6806C15.3997 17.2079 15.5751 16.7889 15.9317 16.6078L15.4788 15.7162C14.6163 16.1544 14.3185 17.1262 14.6085 17.9967L15.5572 17.6806ZM19.4427 17.6806C19.3944 17.8256 19.2631 18.0214 19.0394 18.2519C18.8233 18.4746 18.5552 18.6952 18.2863 18.8936C18.0189 19.0907 17.76 19.2591 17.5673 19.3785C17.4713 19.4379 17.3924 19.4848 17.3382 19.5164C17.3111 19.5322 17.2901 19.5442 17.2763 19.5521C17.2694 19.556 17.2643 19.5589 17.261 19.5607C17.2594 19.5617 17.2583 19.5623 17.2576 19.5627C17.2573 19.5628 17.2571 19.563 17.257 19.563C17.257 19.563 17.257 19.563 17.257 19.563C17.257 19.563 17.257 19.563 17.257 19.563C17.2571 19.563 17.2571 19.5629 17.5 20C17.7428 20.4371 17.7429 20.437 17.743 20.437C17.743 20.437 17.7431 20.4369 17.7432 20.4369C17.7433 20.4368 17.7435 20.4367 17.7437 20.4366C17.7441 20.4363 17.7447 20.436 17.7453 20.4356C17.7467 20.4349 17.7486 20.4339 17.7509 20.4325C17.7556 20.4299 17.7622 20.4262 17.7706 20.4214C17.7874 20.4118 17.8116 20.398 17.842 20.3802C17.903 20.3447 17.9894 20.2933 18.0939 20.2286C18.3021 20.0996 18.5847 19.916 18.8798 19.6984C19.1733 19.4819 19.4886 19.2249 19.7571 18.9483C20.0179 18.6794 20.2724 18.3539 20.3914 17.9967L19.4427 17.6806ZM17.5 20C17.7428 19.5629 17.7429 19.563 17.7429 19.563C17.7429 19.563 17.743 19.563 17.743 19.563C17.743 19.563 17.743 19.563 17.7429 19.563C17.7429 19.563 17.7427 19.5628 17.7423 19.5627C17.7417 19.5623 17.7405 19.5617 17.7389 19.5607C17.7357 19.5589 17.7306 19.556 17.7237 19.5521C17.7098 19.5443 17.6889 19.5323 17.6618 19.5164C17.6075 19.4848 17.5287 19.4379 17.4326 19.3785C17.24 19.2591 16.9811 19.0907 16.7137 18.8936C16.4447 18.6952 16.1767 18.4746 15.9606 18.2519C15.7369 18.0214 15.6055 17.8256 15.5572 17.6806L14.6085 17.9967C14.7275 18.3539 14.982 18.6794 15.2429 18.9483C15.5113 19.2249 15.8267 19.4819 16.1202 19.6984C16.4152 19.916 16.6978 20.0996 16.9061 20.2286C17.0105 20.2933 17.097 20.3447 17.1579 20.3802C17.1884 20.398 17.2125 20.4118 17.2294 20.4214C17.2378 20.4262 17.2444 20.4299 17.2491 20.4325C17.2514 20.4339 17.2532 20.4349 17.2546 20.4356C17.2553 20.436 17.2558 20.4363 17.2562 20.4366C17.2565 20.4367 17.2566 20.4368 17.2568 20.4369C17.2569 20.4369 17.2569 20.437 17.257 20.437C17.2571 20.437 17.2571 20.4371 17.5 20ZM15.9317 16.6078C16.1541 16.4948 16.3089 16.4893 16.4134 16.5086C16.5244 16.5291 16.6288 16.5874 16.7278 16.6771C16.8279 16.7678 16.9078 16.878 16.9642 16.9716C16.9916 17.0171 17.0116 17.0555 17.024 17.0809C17.0302 17.0936 17.0344 17.1028 17.0366 17.1078C17.0377 17.1102 17.0383 17.1117 17.0384 17.1119C17.0384 17.112 17.0384 17.1118 17.0382 17.1114C17.0381 17.1111 17.0379 17.1108 17.0378 17.1104C17.0377 17.1102 17.0376 17.11 17.0375 17.1098C17.0375 17.1096 17.0374 17.1094 17.0374 17.1094C17.0373 17.1092 17.0372 17.109 17.5 16.9197C17.9628 16.7304 17.9627 16.7302 17.9626 16.73C17.9625 16.7299 17.9625 16.7297 17.9624 16.7295C17.9623 16.7292 17.9621 16.7288 17.962 16.7285C17.9617 16.7278 17.9613 16.7269 17.9609 16.726C17.9602 16.7242 17.9593 16.7221 17.9582 16.7196C17.9561 16.7147 17.9534 16.7084 17.9501 16.7009C17.9434 16.6859 17.9343 16.6661 17.9226 16.6421C17.8993 16.5944 17.8655 16.5297 17.8207 16.4554C17.7326 16.3093 17.5944 16.113 17.3995 15.9363C17.2034 15.7585 16.936 15.5883 16.5952 15.5253C16.248 15.4611 15.8711 15.5169 15.4788 15.7162L15.9317 16.6078ZM17.5 16.9197C17.9627 17.1092 17.9626 17.1094 17.9625 17.1096C17.9625 17.1097 17.9624 17.1099 17.9623 17.11C17.9622 17.1102 17.9621 17.1105 17.9621 17.1107C17.9619 17.1111 17.9618 17.1114 17.9617 17.1116C17.9615 17.1121 17.9614 17.1123 17.9614 17.1121C17.9616 17.1119 17.9622 17.1105 17.9633 17.108C17.9655 17.103 17.9697 17.0938 17.9759 17.0811C17.9883 17.0557 18.0083 17.0173 18.0358 16.9718C18.0922 16.8782 18.1723 16.7679 18.2724 16.6772C18.3715 16.5874 18.476 16.5291 18.587 16.5086C18.6915 16.4893 18.8462 16.4949 19.0684 16.6078L19.5215 15.7163C19.1293 15.517 18.7525 15.4611 18.4052 15.5253C18.0644 15.5883 17.797 15.7585 17.6009 15.9362C17.4059 16.1129 17.2676 16.3092 17.1795 16.4552C17.1347 16.5295 17.1008 16.5942 17.0775 16.6419C17.0658 16.6658 17.0567 16.6857 17.05 16.7007C17.0467 16.7081 17.0439 16.7144 17.0418 16.7194C17.0408 16.7218 17.0399 16.724 17.0391 16.7258C17.0387 16.7267 17.0384 16.7275 17.0381 16.7282C17.0379 16.7286 17.0378 16.7289 17.0377 16.7293C17.0376 16.7294 17.0375 16.7296 17.0375 16.7297C17.0374 16.7299 17.0373 16.7302 17.5 16.9197ZM11 6.5H13V5.5H11V6.5ZM13 19.5H11V20.5H13V19.5ZM11 19.5C9.58513 19.5 8.56161 19.4994 7.76445 19.4183C6.97564 19.3381 6.4641 19.1832 6.0555 18.9101L5.49993 19.7416C6.10023 20.1427 6.79537 20.3249 7.66324 20.4132C8.52277 20.5006 9.60594 20.5 11 20.5V19.5ZM3.5 13C3.5 14.3941 3.4994 15.4772 3.58683 16.3368C3.67512 17.2046 3.85728 17.8998 4.25839 18.5001L5.08986 17.9445C4.81684 17.5359 4.66194 17.0244 4.5817 16.2355C4.5006 15.4384 4.5 14.4149 4.5 13H3.5ZM6.0555 18.9101C5.67334 18.6548 5.34521 18.3267 5.08986 17.9445L4.25839 18.5001C4.5867 18.9914 5.00858 19.4133 5.49993 19.7416L6.0555 18.9101ZM13 6.5C14.4149 6.5 15.4384 6.5006 16.2355 6.5817C17.0244 6.66194 17.5359 6.81684 17.9445 7.08986L18.5001 6.25839C17.8998 5.85728 17.2046 5.67512 16.3368 5.58683C15.4772 5.4994 14.3941 5.5 13 5.5V6.5ZM20.5 13C20.5 11.6059 20.5006 10.5228 20.4132 9.66324C20.3249 8.79537 20.1427 8.10023 19.7416 7.49993L18.9101 8.0555C19.1832 8.4641 19.3381 8.97564 19.4183 9.76445C19.4994 10.5616 19.5 11.5851 19.5 13H20.5ZM17.9445 7.08986C18.3267 7.34521 18.6548 7.67334 18.9101 8.0555L19.7416 7.49993C19.4133 7.00858 18.9914 6.5867 18.5001 6.25839L17.9445 7.08986ZM11 5.5C9.60594 5.5 8.52277 5.4994 7.66324 5.58683C6.79537 5.67512 6.10023 5.85728 5.49993 6.25839L6.0555 7.08986C6.4641 6.81684 6.97564 6.66194 7.76445 6.5817C8.56161 6.5006 9.58513 6.5 11 6.5V5.5ZM4.5 13C4.5 11.5851 4.5006 10.5616 4.5817 9.76445C4.66194 8.97564 4.81684 8.4641 5.08986 8.0555L4.25839 7.49993C3.85728 8.10023 3.67512 8.79537 3.58683 9.66324C3.4994 10.5228 3.5 11.6059 3.5 13H4.5ZM5.49993 6.25839C5.00858 6.5867 4.5867 7.00858 4.25839 7.49993L5.08986 8.0555C5.34521 7.67334 5.67334 7.34521 6.0555 7.08986L5.49993 6.25839ZM19.5 13V13.5H20.5V13H19.5ZM12.102 5.08887L13.7748 5.46637L13.9949 4.4909L12.3221 4.1134L12.102 5.08887ZM13.7748 5.46637C14.9595 5.7337 15.8119 5.92666 16.4593 6.14196C17.0995 6.35486 17.4853 6.57325 17.7623 6.86039L18.482 6.16616C18.0458 5.71393 17.4877 5.43009 16.7749 5.19306C16.0693 4.95842 15.1597 4.75374 13.9949 4.4909L13.7748 5.46637ZM12.3221 4.1134C11.1573 3.85054 10.248 3.64476 9.50854 3.55327C8.7611 3.46081 8.13363 3.47702 7.54077 3.69512L7.88603 4.63362C8.26772 4.49321 8.71486 4.46271 9.38577 4.54571C10.0646 4.62969 10.9174 4.82155 12.102 5.08887L12.3221 4.1134ZM7.54077 3.69512C7.05856 3.87251 6.61612 4.14094 6.23901 4.4857L6.91376 5.22375C7.19419 4.96737 7.52447 4.76663 7.88603 4.63362L7.54077 3.69512ZM6.03583 6.93196C6.30257 6.03654 6.55298 5.55359 6.91376 5.22375L6.23901 4.48571C5.67169 5.00436 5.35777 5.70546 5.07745 6.64645L6.03583 6.93196ZM17.7623 6.86039C17.8516 6.95298 17.923 7.02857 17.9798 7.08999L18.7142 6.41126C18.6514 6.34335 18.5749 6.26244 18.482 6.16616L17.7623 6.86039ZM4 12H6.5V11H4V12ZM6.5 14H4V15H6.5V14ZM4.5 14.5V11.5H3.5V14.5H4.5ZM7.5 13C7.5 13.5523 7.05228 14 6.5 14V15C7.60457 15 8.5 14.1046 8.5 13H7.5ZM6.5 12C7.05228 12 7.5 12.4477 7.5 13H8.5C8.5 11.8954 7.60457 11 6.5 11V12Z" fill="black"/>
</svg>
